# xmcd
#
# Track frame offsets:
#	150
#	8086
#	12810
#	20141
#	24351
#	38514
#	42763
#	47889
#	51472
#	57214
#	64789
#	69271
#	74540
#	78406
#	84133
#	88839
#	93584
#	97635
#	101354
#	105142
#	108720
#	112535
#	118749
#	125635
#	132244
#	136953
#	142209
#	148011
#	153163
#	159879
#	167773
#	171097
#	175456
#	179358
#	189925
#	196971
#	206286
#	210198
#	219408
#	222535
#	229762
#	236425
#	245486
#	254078
#	258574
#	268802
#	274057
#	279695
#	284148
#	288445
#	293686
#	297249
#	301081
#	305079
#	308512
#
# Disc length: 4225 seconds
#
# Revision: 0
# Processed by: cddbd v1.5.2PL0 Copyright (c) Steve Scherf et al.
# Submitted via: EasyCDDAExtractor 12.0.4.1
#
DISCID=1e107f37
DTITLE=中央人民广播电台少儿艺术团 - 北京童谣
DYEAR=2002
DGENRE=Other
TTITLE0=小小子儿坐门墩
TTITLE1=小辫儿刘
TTITLE2=谁是我的兵
TTITLE3=杨树叶儿哗啦啦
TTITLE4=狼来了，虎来了
TTITLE5=小板凳儿你莫歪
TTITLE6=小摇车
TTITLE7=老头儿玩火球
TTITLE8=拉大锯，扯大锯
TTITLE9=小白菜而地里黄
TTITLE10=树叶儿青
TTITLE11=小板凳三条腿
TTITLE12=一个小人儿
TTITLE13=小红孩儿
TTITLE14=小眼睛看景致儿
TTITLE15=小小子儿上庙台
TTITLE16=丫头丫会看家
TTITLE17=有个大姐整十七
TTITLE18=大脚大
TTITLE19=碑儿头窝窝眼
TTITLE20=摇篮摇
TTITLE21=小孩应把卫生讲
TTITLE22=小五儿，小六儿
TTITLE23=槐树底下搭戏台
TTITLE24=小秃儿
TTITLE25=丫头片儿卖鸡蛋
TTITLE26=小小子儿
TTITLE27=二姑娘二
TTITLE28=催眠曲
TTITLE29=剃头的手艺高
TTITLE30=分果果，排排坐
TTITLE31=金箍噜棒
TTITLE32=一个老头儿老太太
TTITLE33=小妞听戏
TTITLE34=懒汉懒
TTITLE35=胖子胖，打麻将
TTITLE36=小胖哥儿玩意多
TTITLE37=鲁班爷锔白塔
TTITLE38=秦始皇砌城墙
TTITLE39=刘伯温造北京
TTITLE40=苏武牧羊
TTITLE41=纸钱飘飘
TTITLE42=大都的城门挤炸了边儿
TTITLE43=孩儿夺取北京城
TTITLE44=迎闯王谣
TTITLE45=天上星多月不明
TTITLE46=四大徽班谣
TTITLE47=林则徐禁鸦片
TTITLE48=西太后把国卖
TTITLE49=宣统不过两年半
TTITLE50=五色旗，没有边儿
TTITLE51=假充万岁袁世凯
TTITLE52=日本鬼儿
TTITLE53=北京民谣
TTITLE54=五岳歌
EXTD=
EXTT0=
EXTT1=
EXTT2=
EXTT3=
EXTT4=
EXTT5=
EXTT6=
EXTT7=
EXTT8=
EXTT9=
EXTT10=
EXTT11=
EXTT12=
EXTT13=
EXTT14=
EXTT15=
EXTT16=
EXTT17=
EXTT18=
EXTT19=
EXTT20=
EXTT21=
EXTT22=
EXTT23=
EXTT24=
EXTT25=
EXTT26=
EXTT27=
EXTT28=
EXTT29=
EXTT30=
EXTT31=
EXTT32=
EXTT33=
EXTT34=
EXTT35=
EXTT36=
EXTT37=
EXTT38=
EXTT39=
EXTT40=
EXTT41=
EXTT42=
EXTT43=
EXTT44=
EXTT45=
EXTT46=
EXTT47=
EXTT48=
EXTT49=
EXTT50=
EXTT51=
EXTT52=
EXTT53=
EXTT54=
PLAYORDER=
